<svg xmlns="http://www.w3.org/2000/svg" viewBox="0 0 50 50">
  <rect width="50" height="50" rx="8" fill="#E76C1F"/>
  <path d="M15.4915 37C15.1016 37 14.7896 36.845 14.5557 36.535C14.3217 36.225 14.2535 35.88 14.3509 35.5L18.7377 17.5L18.6792 16.66C18.6597 16.32 18.5427 16.025 18.3282 15.775C18.1138 15.525 17.8408 15.4 17.5094 15.4C17.1779 15.4 16.9001 15.515 16.6759 15.745C16.4517 15.975 16.3396 16.26 16.3396 16.6V17.8C16.3396 18.14 16.2275 18.425 16.0033 18.655C15.7791 18.885 15.5012 19 15.1698 19C14.8384 19 14.5605 18.885 14.3363 18.655C14.1121 18.425 14 18.14 14 17.8V16.6C14 15.6 14.3412 14.75 15.0236 14.05C15.7059 13.35 16.5345 13 17.5094 13H30.4356C31.3714 13 32.1756 13.325 32.8483 13.975C33.5209 14.625 33.8864 15.43 33.9449 16.39L34.9978 35.74C35.0172 36.08 34.91 36.375 34.6761 36.625C34.4421 36.875 34.1594 37 33.828 37H15.4915ZM17.0415 34.6H19.7612L19.2056 25.48L17.0415 34.6ZM22.13 34.6H32.5997L31.6054 16.54C31.5859 16.22 31.464 15.95 31.2398 15.73C31.0156 15.51 30.7475 15.4 30.4356 15.4H20.814C20.892 15.6 20.9408 15.795 20.9603 15.985C20.9798 16.175 20.9992 16.38 21.0187 16.6L22.13 34.6ZM26.5753 32.2C26.8287 32.2 27.0383 32.115 27.204 31.945C27.3697 31.775 27.4526 31.56 27.4526 31.3V27.4C27.9595 27.28 28.3787 27.005 28.7101 26.575C29.0416 26.145 29.2073 25.65 29.2073 25.09V20.8C29.2073 20.64 29.1488 20.5 29.0318 20.38C28.9148 20.26 28.7784 20.2 28.6224 20.2C28.4664 20.2 28.3299 20.26 28.213 20.38C28.096 20.5 28.0375 20.64 28.0375 20.8V24.73H27.1601V20.8C27.1601 20.64 27.1017 20.5 26.9847 20.38C26.8677 20.26 26.7312 20.2 26.5753 20.2C26.4193 20.2 26.2828 20.26 26.1658 20.38C26.0488 20.5 25.9904 20.64 25.9904 20.8V24.73H25.113V20.8C25.113 20.64 25.0545 20.5 24.9375 20.38C24.8206 20.26 24.6841 20.2 24.5281 20.2C24.3721 20.2 24.2357 20.26 24.1187 20.38C24.0017 20.5 23.9432 20.64 23.9432 20.8V25.09C23.9432 25.65 24.1089 26.145 24.4404 26.575C24.7718 27.005 25.191 27.28 25.6979 27.4V31.3C25.6979 31.56 25.7808 31.775 25.9465 31.945C26.1122 32.115 26.3218 32.2 26.5753 32.2Z" fill="white"/>
</svg>
